<?xml version="1.0" encoding="UTF-8"?>
<svg width="32px" height="32px" viewBox="0 0 32 32" version="1.1" xmlns="http://www.w3.org/2000/svg" xmlns:xlink="http://www.w3.org/1999/xlink">
    <title>19A68845-689D-4C01-A73F-17B6B3190959</title>
    <g id="ðŸžï¸-UI-(Web)" stroke="none" stroke-width="1" fill="none" fill-rule="evenodd">
        <g id="Article---Mobile" transform="translate(-15.000000, -744.000000)">
            <rect fill="#F8F8F8" x="0" y="0" width="375" height="8435"></rect>
            <g id="Article/Share-This" transform="translate(15.000000, 707.000000)" fill="#3B5998" fill-rule="nonzero">
                <g id="facebook" transform="translate(0.000000, 37.000000)">
                    <path d="M15.8861593,-6.66663933e-08 C24.6598428,-6.66663933e-08 31.7723186,7.11247575 31.7723186,15.8861593 C31.7723186,24.6598428 24.6598428,31.7723186 15.8861593,31.7723186 C7.11247575,31.7723186 -6.66663933e-08,24.6598428 -6.66663933e-08,15.8861593 C-6.66663933e-08,7.11247575 7.11247575,-6.66663933e-08 15.8861593,-6.66663933e-08 Z M17.083469,6.16297341 C13.552708,6.16297341 12.7504425,8.80764599 12.7504425,10.4965663 L12.7504425,10.4965663 L12.7504425,12.8583363 L10.707823,12.8583363 L10.707823,16.5080354 L12.7504425,16.5080354 L12.7504425,26.8930266 L17.0452389,26.8930266 L17.0452389,16.5080354 L19.8799292,16.5080354 L20.2551505,12.8617345 L17.0455221,12.8617345 L17.0455221,10.7137699 C17.0455221,9.90810617 17.5779115,9.71893803 17.956531,9.71893803 L17.956531,9.71893803 L20.2647788,9.71893803 L20.2647788,6.17628314 Z" id="Oval-2"></path>
                </g>
            </g>
        </g>
    </g>
</svg>