<?xml version="1.0" encoding="UTF-8"?>
<svg width="110px" height="76px" viewBox="0 0 110 76" version="1.1" xmlns="http://www.w3.org/2000/svg" xmlns:xlink="http://www.w3.org/1999/xlink">
    <title>D4718B7B-F713-49DB-BD41-D9FB11718F3C</title>
    <g id="ðŸžï¸-UI-(Web)" stroke="none" stroke-width="1" fill="none" fill-rule="evenodd">
        <g id="Homepage" transform="translate(-332.000000, 1.000000)" fill="#FFFFFF" fill-rule="nonzero">
            <g id="Navigation" transform="translate(0.000000, -0.125000)">
                <g id="Group" transform="translate(332.000000, 0.000000)">
                    <g id="square1-logo-white" transform="translate(0.000000, 26.730000)">
                        <path d="M11.6596978,1.91835652 L9.17533954,4.61664661 C7.87273005,3.85046547 6.92934534,3.4673749 6.35525713,3.4673749 C5.92133684,3.46481306 5.5070701,3.64669632 5.21715245,3.96705825 C4.90225257,4.28068121 4.72798453,4.70697079 4.73370975,5.14964219 C4.73370975,6.05351385 5.56182919,6.8363511 7.21806806,7.49815394 C8.1737056,7.87832353 9.09283707,8.34324703 9.96429116,8.88727365 C10.6136435,9.33464308 11.1483085,9.9267733 11.5254082,10.616178 C11.9374812,11.3420328 12.1526442,12.1615802 12.1498818,12.9946708 C12.1459439,14.5792057 11.4429766,16.0825849 10.226156,17.1087304 C8.99766828,18.2537589 7.36912443,18.8807799 5.68380894,18.8576221 C3.76346711,18.8665054 1.86886413,17.9748482 0,16.1826506 L2.62200519,13.147907 C3.79703952,14.3493679 4.8959764,14.9500983 5.91881581,14.9500983 C6.4458206,14.932511 6.94435426,14.7085321 7.30535633,14.3271597 C7.70466314,13.9937837 7.94760474,13.5116661 7.97680452,12.9946708 C7.97680452,12.0308371 6.95844143,11.1869275 4.92171524,10.4629418 C4.04123122,10.1862295 3.20477397,9.7869444 2.43735694,9.27702667 C1.8944962,8.84976592 1.46660432,8.29587199 1.19182054,7.66471505 C0.864209851,6.98907237 0.693282515,6.24919505 0.691591637,5.49942053 C0.631843711,4.00775307 1.21695354,2.56176927 2.29971006,1.52527228 C3.36731268,0.510359872 4.76728216,0.00290366903 6.4996185,0.00290366903 C8.4055449,-0.0505871201 10.2571442,0.636737821 11.6596978,1.91835652 Z M30.5508927,16.1560008 L32.8304593,18.7576854 L30.1446666,20.4499464 L28.0497482,17.9581921 C26.7153811,18.4840695 25.2984532,18.7738275 23.8632687,18.8143162 C21.1304746,18.8143162 18.892314,17.911555 17.1487868,16.1060325 C15.4052597,14.30051 14.5245435,11.9864208 14.5066382,9.16376511 C14.5092643,6.80706313 15.4238326,4.54134344 17.0614986,2.83444266 C18.7714533,0.964516518 21.0297574,0.0284430403 23.8364108,0.0262222254 C26.3304138,-0.0277517643 28.7356021,0.945438907 30.4803907,2.71451865 C32.256262,4.4582823 33.2280407,6.85202633 33.1661834,9.33032622 C33.2348981,11.8586059 32.2950226,14.3115969 30.5508927,16.1560008 L30.5508927,16.1560008 Z M25.441172,14.9500983 L23.5006867,12.6615486 L26.1226919,10.9692876 L27.9121013,13.0679577 C28.6439799,12.2640227 29.0099191,11.090322 29.0099191,9.54685568 C29.0099191,7.76465172 28.5432626,6.34221978 27.5998779,5.2862223 C26.6526785,4.21795742 25.269048,3.63254286 23.8364108,3.69389802 C22.4317015,3.65420127 21.080717,4.23062245 20.1434458,5.26956619 C19.1743222,6.31557001 18.6908795,7.66915668 18.6931099,9.33032622 C18.6953558,10.9914958 19.1552978,12.3783947 20.0729437,13.4910229 C20.9179089,14.5439371 22.2082285,15.1471646 23.5644743,15.1233219 C24.1936784,15.1150257 24.8212217,15.057102 25.441172,14.9500983 L25.441172,14.9500983 Z M36.5939264,0.252745345 L40.5252556,0.252745345 L40.5252556,11.4856271 C40.4782599,12.4005818 40.7871188,13.298513 41.3880665,13.9940375 C41.973804,14.630677 42.8130004,14.9781402 43.6810621,14.9434359 C44.7755227,14.9434359 45.6215474,14.630301 46.2224935,13.9907063 C46.8234396,13.3511116 47.1222341,12.4483503 47.1222341,11.2824225 L47.1222341,0.252745345 L51.0300626,0.252745345 L51.0300626,12.1452091 C51.0059958,13.2757875 50.7272477,14.3866914 50.214253,15.3964821 C49.6775813,16.5031923 48.7942246,17.4077513 47.6963223,17.9748482 C46.5237504,18.5809329 45.2179313,18.8888331 43.8959255,18.870947 C41.3578514,18.870947 39.5024162,18.1691695 38.32962,16.7656145 C37.1568238,15.3620595 36.5782593,13.8829968 36.5939264,12.3284263 L36.5939264,0.252745345 Z M60.3061193,0.252745345 L63.3914238,0.252745345 L70.9485732,18.6177741 L66.933313,18.6177741 L65.4225546,14.9934042 L58.3287044,14.9934042 L56.8817336,18.6044492 L52.8933313,18.6044492 L60.2792614,0.239420455 L60.3061193,0.252745345 Z M61.8403785,6.26560167 L59.6850298,11.6821692 L64.0695864,11.6821692 L61.8403785,6.26560167 Z M73.8122997,0.269401456 L79.9023348,0.269401456 C81.7555318,0.269401456 83.2159316,0.755759918 84.2969632,1.72514562 C85.3779948,2.69453132 85.9084389,4.00703292 85.9084389,5.65265676 C85.890293,6.67498126 85.6377067,7.6797748 85.1698459,8.59079486 C84.6774505,9.60570727 83.7687573,10.4029798 82.4437662,10.9826125 L87.6139173,18.6444239 L83.0480696,18.6444239 L78.2539295,11.5122769 L77.800702,11.5122769 L77.800702,18.6177741 L73.8122997,18.6177741 L73.8122997,0.252745345 L73.8122997,0.269401456 Z M77.8409889,3.54399302 L77.8409889,8.31097219 L78.6970853,8.31097219 C80.7740984,8.31097219 81.813724,7.46706253 81.8159622,5.77924321 C81.8373983,5.13007899 81.5314776,4.51298605 81.0001526,4.13361937 C80.3386695,3.69277828 79.5495512,3.47976412 78.7541584,3.52733691 L77.8409889,3.54399302 Z M90.799939,0.252745345 L101.207386,0.252745345 L101.207386,3.89044014 L94.7883412,3.89044014 L94.7883412,14.9934042 L103.920037,14.9934042 L103.920037,18.6177741 L90.799939,18.6177741 L90.799939,0.252745345 Z M102.234702,7.64472772 L98.6256676,7.64472772 L98.6256676,11.2257917 L102.234702,11.2257917 L102.234702,7.64472772 Z" id="Shape"></path>
                        <polygon id="Path" points="103.705173 0.249414122 110 0.249414122 110 18.6177741 106.068671 18.6177741 106.068671 3.89044014 103.023653 3.89044014 103.705173 0.249414122"></polygon>
                    </g>
                </g>
            </g>
        </g>
    </g>
</svg>