<?xml version="1.0" encoding="UTF-8"?>
<svg width="120px" height="82px" viewBox="0 0 120 82" version="1.1" xmlns="http://www.w3.org/2000/svg" xmlns:xlink="http://www.w3.org/1999/xlink">
    <title>F485BECE-702C-4E0F-9F86-E0F0DFB299BA</title>
    <g id="ðŸžï¸-UI-(Web)" stroke="none" stroke-width="1" fill="none" fill-rule="evenodd">
        <g id="Homepage---Mobile" transform="translate(-15.000000, -8899.000000)" fill="#FFFFFF" fill-rule="nonzero">
            <g id="17.Footer/Mobile/Default-Dark" transform="translate(0.000000, 8869.000000)">
                <g id="Group" transform="translate(15.000000, 30.000000)">
                    <g id="square1-logo-white" transform="translate(0.000000, 29.520000)">
                        <path d="M12.7196704,2.11858901 L10.0094613,5.09851882 C8.58843278,4.25236591 7.55928582,3.82928946 6.93300778,3.82928946 C6.45964019,3.82646021 6.00771283,4.02732792 5.69143904,4.38112831 C5.3479119,4.72748632 5.15780131,5.19827077 5.164047,5.68714693 C5.164047,6.68536209 6.06745002,7.54990963 7.87425607,8.28078953 C8.91676974,8.70064013 9.91945863,9.214091 10.8701358,9.81490154 C11.5785202,10.3089661 12.161791,10.9629011 12.5731726,11.724264 C13.0227068,12.5258814 13.2574301,13.4309708 13.2544165,14.3510169 C13.2501206,16.1009409 12.4832472,17.7612386 11.1558065,18.8944901 C9.81563813,20.1590334 8.03904483,20.8515011 6.20051885,20.8259261 C4.10560049,20.8357366 2.03876087,19.8510108 0,17.8717488 L2.8603693,14.5202475 C4.14222494,15.8471134 5.34106516,16.5105463 6.45688997,16.5105463 C7.03180429,16.4911232 7.57565919,16.243766 7.96947963,15.8225872 C8.40508707,15.4544144 8.67011426,14.9219747 8.70196856,14.3510169 C8.70196856,13.2865811 7.59102701,12.3545866 5.3691439,11.5550334 C4.40861587,11.2494387 3.49611705,10.8084773 2.65893484,10.2453358 C2.06672313,9.77347886 1.59993199,9.16177109 1.30016786,8.46473582 C0.942774383,7.71857151 0.756308199,6.90146793 0.754463604,6.07343412 C0.689284049,4.42607074 1.32758568,2.82915933 2.50877461,1.68447578 C3.67343202,0.563629758 5.20067145,0.00320674559 7.0904929,0.00320674559 C9.16968535,-0.0558672572 11.1896119,0.703198671 12.7196704,2.11858901 Z M33.3282466,17.8423174 L35.8150465,20.7155583 L32.8850908,22.5844526 L30.5997253,19.8326162 C29.1440521,20.4133831 27.5983125,20.7333853 26.0326568,20.7781001 C23.0514268,20.7781001 20.609797,19.7811112 18.7077674,17.7871335 C16.8057378,15.7931558 15.8449565,13.2375287 15.8254235,10.1202524 C15.8282883,7.51756467 16.8259992,5.01535572 18.6125439,3.13029358 C20.477949,1.06518996 22.9415535,0.0314118425 26.0033572,0.0289592254 C28.7240877,-0.0306484131 31.3479296,1.04412108 33.2513353,2.99785225 C35.1886495,4.9236249 36.2487716,7.567221 36.181291,10.3041987 C36.2562525,13.0963728 35.2309337,15.8053999 33.3282466,17.8423174 L33.3282466,17.8423174 Z M27.7540058,16.5105463 L25.6371128,13.9831243 L28.4974821,12.1142301 L30.4495651,14.4319533 C31.247978,13.5441059 31.6471845,12.2478977 31.6471845,10.5433288 C31.6471845,8.57510359 31.1381047,7.00420232 30.1089577,5.83798288 C29.0756493,4.6582156 27.5662342,4.01169717 26.0033572,4.0794564 C24.4709471,4.03561622 22.9971458,4.67220257 21.9746681,5.81958825 C20.9174424,6.97477091 20.3900504,8.46964105 20.3924835,10.3041987 C20.3949336,12.1387563 20.8966885,13.6704157 21.8977568,14.8991768 C22.819537,16.0619911 24.2271584,16.7281818 25.7066992,16.7018504 C26.3931037,16.6926884 27.0776964,16.6287187 27.7540058,16.5105463 L27.7540058,16.5105463 Z M39.920647,0.279126172 L44.2093698,0.279126172 L44.2093698,12.6844636 C44.1581018,13.6949186 44.4950387,14.6865732 45.150618,15.4546946 C45.7896044,16.1577847 46.7050914,16.5415152 47.6520678,16.5031884 C48.8460247,16.5031884 49.7689608,16.1573694 50.4245384,15.4510157 C51.080116,14.744662 51.4060736,13.7476731 51.4060736,12.4600491 L51.4060736,0.279126172 L55.6691592,0.279126172 L55.6691592,13.4128909 C55.6429045,14.6614757 55.3388157,15.8883326 54.7791851,17.0035223 C54.193725,18.2257478 53.2300632,19.224722 52.0323516,19.8510108 C50.7531822,20.5203569 49.3286524,20.8603948 47.8864642,20.8406418 C45.117656,20.8406418 43.0935449,20.0656148 41.8141309,18.5155608 C40.5347169,16.9655068 39.9035556,15.3320638 39.920647,13.6152318 L39.920647,0.279126172 Z M65.7884938,0.279126172 L69.1542805,0.279126172 L77.3984435,20.5610435 L73.0181596,20.5610435 L71.3700595,16.5583723 L63.6313139,16.5583723 L62.0528002,20.5463278 L57.701816,20.5463278 L65.7591943,0.264410469 L65.7884938,0.279126172 Z M67.462231,6.91958703 L65.1109416,12.9015202 L69.8940943,12.9015202 L67.462231,6.91958703 Z M80.5225088,0.2975208 L87.1661834,0.2975208 C89.1878529,0.2975208 90.7810163,0.83464395 91.9603235,1.90521132 C93.1396307,2.9757787 93.718297,4.42527542 93.718297,6.2426647 C93.6985014,7.37169648 93.4229527,8.48136745 92.9125591,9.48747716 C92.3754006,10.6083232 91.3840989,11.4888127 89.9386541,12.1289458 L95.5788189,20.5904749 L90.5978941,20.5904749 L85.3679231,12.713895 L84.8734931,12.713895 L84.8734931,20.5610435 L80.5225088,20.5610435 L80.5225088,0.279126172 L80.5225088,0.2975208 Z M84.9174424,3.91390475 L84.9174424,9.1784474 L85.8513658,9.1784474 C88.1171982,9.1784474 89.2513353,8.24645289 89.2537769,6.38246388 C89.2771618,5.66554179 88.9434302,4.98403847 88.3638028,4.56507459 C87.6421849,4.07821978 86.7813286,3.84297182 85.9136273,3.89551012 L84.9174424,3.91390475 Z M99.0544789,0.279126172 L110.408057,0.279126172 L110.408057,4.29651302 L103.405463,4.29651302 L103.405463,16.5583723 L113.367313,16.5583723 L113.367313,20.5610435 L99.0544789,20.5610435 L99.0544789,0.279126172 Z M111.528765,8.44266226 L107.591637,8.44266226 L107.591637,12.3975074 L111.528765,12.3975074 L111.528765,8.44266226 Z" id="Shape"></path>
                        <polygon id="Path" points="113.132916 0.275447246 120 0.275447246 120 20.5610435 115.711277 20.5610435 115.711277 4.29651302 112.38944 4.29651302 113.132916 0.275447246"></polygon>
                    </g>
                </g>
            </g>
        </g>
    </g>
</svg>