<?xml version="1.0" encoding="UTF-8"?>
<svg width="12px" height="12px" viewBox="0 0 12 12" version="1.1" xmlns="http://www.w3.org/2000/svg" xmlns:xlink="http://www.w3.org/1999/xlink">
    <title>A6E0FA8A-6B36-42AC-8821-90642A4036D4</title>
    <g id="ðŸžï¸-UI-(Web)" stroke="none" stroke-width="1" fill="none" fill-rule="evenodd">
        <g id="Search-Modal---Desktop" transform="translate(-698.000000, -495.000000)">
            <rect id="Background" fill-opacity="0.9" fill="#000000" x="0" y="0" width="1920" height="1001"></rect>
            <rect id="Rectangle" fill="#323F4B" x="683" y="475" width="470" height="52" rx="6"></rect>
            <g id="Icon" transform="translate(698.000000, 495.000000)" fill="#FFFFFF">
                <path d="M8.55704702,7.53020137 L8.00939601,7.53020137 L7.80405372,7.32483225 C8.48861749,6.57181211 8.89935574,5.54496647 8.89935574,4.44966445 C8.8993289,1.98523491 6.91409399,-3.55271368e-14 4.44966445,-3.55271368e-14 C1.98523491,-3.55271368e-14 0,1.98523491 0,4.44966445 C0,6.91409399 1.98523491,8.8993289 4.44966445,8.8993289 C5.54496647,8.8993289 6.57181211,8.48859064 7.32483225,7.80402688 L7.53020137,8.00936916 L7.53020137,8.55702017 L10.9530202,11.9798658 L11.9798658,10.9530202 L8.55704702,7.53020137 Z M4.44966445,7.53020137 C2.73825504,7.53020137 1.36912752,6.16107385 1.36912752,4.44966445 C1.36912752,2.73825504 2.73825504,1.36912752 4.44966445,1.36912752 C6.16107385,1.36912752 7.53020137,2.73825504 7.53020137,4.44966445 C7.53020137,6.16107385 6.16107385,7.53020137 4.44966445,7.53020137 Z" id="_Icons/Material-Design-Icon-Pack/searching-magnifying-glass"></path>
            </g>
        </g>
    </g>
</svg>