<?xml version="1.0" encoding="UTF-8"?>
<svg width="32px" height="32px" viewBox="0 0 32 32" version="1.1" xmlns="http://www.w3.org/2000/svg" xmlns:xlink="http://www.w3.org/1999/xlink">
    <title>6F12E49E-94FD-4F91-B6CD-351D310BC832</title>
    <g id="ðŸžï¸-UI-(Web)" stroke="none" stroke-width="1" fill="none" fill-rule="evenodd">
        <g id="Article---Mobile" transform="translate(-203.000000, -744.000000)">
            <rect fill="#F8F8F8" x="0" y="0" width="375" height="8435"></rect>
            <g id="Article/Share-This" transform="translate(15.000000, 707.000000)" fill="#E60023" fill-rule="nonzero">
                <g id="pinterest" transform="translate(188.000000, 37.000000)">
                    <path d="M15.8867257,-6.66663163e-08 C24.660722,-6.66663163e-08 31.7734514,7.11272932 31.7734514,15.8867257 C31.7734514,24.660722 24.660722,31.7734514 15.8867257,31.7734514 C7.11272932,31.7734514 -6.66663163e-08,24.660722 -6.66663163e-08,15.8867257 C-6.66663163e-08,7.11272932 7.11272932,-6.66663163e-08 15.8867257,-6.66663163e-08 Z M23.4761062,12.460177 C22.9380531,8.55221236 19.0300885,6.56991147 14.8955752,7.0513274 C11.6106195,7.41946899 8.35398227,10.0530973 8.21238935,13.8477876 C8.1274336,16.1415929 8.77876103,17.8973451 10.9876106,18.3787611 C11.9504425,16.679646 10.6761062,16.3115044 10.4778761,15.0938053 C9.68495573,10.1097345 16.2548673,6.6831858 19.6814159,10.2230088 C22.060177,12.6300885 20.5026549,20.0495575 16.6513274,19.2849558 C14.8106195,18.9168142 15.2637168,17.2530974 15.8088496,15.5362832 L15.9306103,15.1543999 C16.4368015,13.563786 16.8820715,12.0065552 15.5185841,11.4690265 C13.139823,10.5345133 11.8654867,14.3575221 12.9982301,16.2548673 C12.3469026,19.5115044 10.9309734,22.5982301 11.4973451,26.7044248 C13.3663717,25.3451328 14.0176991,22.739823 14.5274336,20.021239 C15.4619469,20.5876106 15.9716814,21.1823009 17.161062,21.2672567 C21.6070797,21.6070797 24.0707965,16.8495575 23.4761062,12.460177 Z" id="Oval-2"></path>
                </g>
            </g>
        </g>
    </g>
</svg>