<?xml version="1.0" encoding="UTF-8"?>
<svg width="32px" height="32px" viewBox="0 0 32 32" version="1.1" xmlns="http://www.w3.org/2000/svg" xmlns:xlink="http://www.w3.org/1999/xlink">
    <title>BD346D64-0BB4-470B-A079-EE2E1450E055</title>
    <g id="ðŸžï¸-UI-(Web)" stroke="none" stroke-width="1" fill="none" fill-rule="evenodd">
        <g id="Article---Mobile" transform="translate(-156.000000, -744.000000)">
            <rect fill="#F8F8F8" x="0" y="0" width="375" height="8435"></rect>
            <g id="Article/Share-This" transform="translate(15.000000, 707.000000)" fill-rule="nonzero">
                <g id="reddit" transform="translate(141.000000, 37.000000)">
                    <circle id="Oval" fill="#FF4500" cx="16" cy="16" r="16"></circle>
                    <path d="M26.2156017,16.1457247 C26.2123686,15.2291684 25.6626341,14.4029355 24.8184753,14.0458895 C23.9743165,13.6888435 22.9985583,13.8698528 22.3386276,14.5059169 C20.7737825,13.3767921 18.6186066,12.648249 16.2174595,12.563916 L17.2599087,7.6585482 L20.6683663,8.3824062 C20.7064856,9.20766801 21.3525731,9.87570519 22.1761016,9.94136394 C22.99963,10.0070227 23.743406,9.44979735 23.9118064,8.64100106 C24.0802068,7.83220477 23.6206391,7.02442986 22.8393411,6.75594587 C22.0580432,6.48746189 21.1990194,6.84211812 20.8346897,7.58358556 L17.0350208,6.77539459 C16.9293241,6.7524328 16.8188341,6.77267524 16.7281425,6.83161657 C16.6372117,6.89074837 16.5732455,6.98333104 16.5501062,7.08930065 L15.378815,12.563916 C12.9495569,12.6318509 10.7545571,13.3533663 9.17565645,14.5059169 C8.51426496,13.8916175 7.55335527,13.7239545 6.72300869,14.0779701 C5.89266212,14.4319856 5.34832802,15.2414043 5.33363795,16.1439489 C5.31894788,17.0464934 5.83665197,17.8731982 6.65503765,18.2540489 C6.61888346,18.4865559 6.60086933,18.7215228 6.60115825,18.9568237 C6.60115825,22.4706975 10.7006777,25.3333333 15.7559708,25.3333333 C20.8112638,25.3333333 24.9131258,22.4777252 24.9131258,18.9568237 C24.9128398,18.7262092 24.894827,18.4959578 24.8592464,18.2681044 C25.6950026,17.8954156 26.2284324,17.0607224 26.2156017,16.1457247 Z M10.5202988,17.7855324 C10.5202988,16.8798916 11.2544658,16.1457247 12.1601066,16.1457247 C13.0657474,16.1457247 13.7999143,16.8798916 13.7999143,17.7855324 C13.7999143,18.6911733 13.0657474,19.4253402 12.1601066,19.4253402 C11.2544658,19.4253402 10.5202988,18.6911733 10.5202988,17.7855324 L10.5202988,17.7855324 Z M19.6563707,22.102912 C18.5389588,23.2156387 16.4025235,23.3023143 15.7723688,23.3023143 C15.1422141,23.3023143 13.0057789,23.2156387 11.8907096,22.102912 C11.7251067,21.9373091 11.7251067,21.6688138 11.8907096,21.5032109 C12.0563125,21.337608 12.3248078,21.337608 12.4904107,21.5032109 C13.1931855,22.2059857 14.6971235,22.456642 15.7700262,22.456642 C16.842929,22.456642 18.346867,22.2059857 19.0496418,21.5032109 C19.2152447,21.3356674 19.4853132,21.3340942 19.6528568,21.4996971 C19.8204003,21.6652999 19.8219735,21.9353685 19.6563707,22.102912 L19.6563707,22.102912 Z M19.3565201,19.4253402 C18.4508793,19.4253402 17.7167123,18.6911733 17.7167123,17.7855324 C17.7167123,16.8798916 18.4508793,16.1457247 19.3565201,16.1457247 C20.2621609,16.1457247 20.9963279,16.8798916 20.9963279,17.7855324 C20.9963279,18.2204365 20.8235629,18.637528 20.5160393,18.9450516 C20.2085157,19.2525752 19.7914241,19.4253402 19.3565201,19.4253402 L19.3565201,19.4253402 Z" id="Shape" fill="#FFFFFF"></path>
                </g>
            </g>
        </g>
    </g>
</svg>