<?xml version="1.0" encoding="UTF-8"?>
<svg width="18px" height="18px" viewBox="0 0 18 18" version="1.1" xmlns="http://www.w3.org/2000/svg" xmlns:xlink="http://www.w3.org/1999/xlink">
    <title>A9F9FD35-B172-4D57-91E2-45F06A2CF26B</title>
    <g id="ðŸžï¸-UI-(Web)" stroke="none" stroke-width="1" fill="none" fill-rule="evenodd">
        <g id="Homepage---Mobile" transform="translate(-344.000000, -16.000000)">
           
            <g id="16.Navigation/Mobile/Default" transform="translate(0.000000, -3.000000)">
                <rect id="Background" fill="#511378" x="0" y="3" width="375" height="50"></rect>
                <g id="Icon" transform="translate(344.000000, 19.000000)" fill="#FFFFFF">
                    <path d="M12.8355705,11.295302 L12.014094,11.295302 L11.7060805,10.9872483 C12.7329262,9.85771812 13.3490336,8.31744966 13.3490336,6.67449663 C13.3489933,2.97785232 10.3711409,-3.75000004e-08 6.67449663,-3.75000004e-08 C2.97785232,-3.75000004e-08 -3.75000004e-08,2.97785232 -3.75000004e-08,6.67449663 C-3.75000004e-08,10.3711409 2.97785232,13.3489933 6.67449663,13.3489933 C8.31744966,13.3489933 9.85771812,12.7328859 10.9872483,11.7060403 L11.295302,12.0140537 L11.295302,12.8355302 L16.4295302,17.9697987 L17.9697987,16.4295302 L12.8355705,11.295302 Z M6.67449663,11.295302 C4.10738253,11.295302 2.05369125,9.24161074 2.05369125,6.67449663 C2.05369125,4.10738253 4.10738253,2.05369125 6.67449663,2.05369125 C9.24161074,2.05369125 11.295302,4.10738253 11.295302,6.67449663 C11.295302,9.24161074 9.24161074,11.295302 6.67449663,11.295302 Z" id="_Icons/Material-Design-Icon-Pack/searching-magnifying-glass"></path>
                </g>
            </g>
        </g>
    </g>
</svg>