<?xml version="1.0" encoding="UTF-8"?>
<svg width="24px" height="24px" viewBox="0 0 24 24" version="1.1" xmlns="http://www.w3.org/2000/svg" xmlns:xlink="http://www.w3.org/1999/xlink">
    <title>A4493E71-7644-4BA8-BFCB-F22CF09A11D7</title>
    <g id="ðŸžï¸-UI-(Web)" stroke="none" stroke-width="1" fill="none" fill-rule="evenodd">
        <g id="Homepage" transform="translate(-441.000000, -5501.000000)">
            <rect fill="#F8F8F8" x="0" y="0" width="1920" height="5697"></rect>
            <g id="Footer" transform="translate(0.000000, 5389.000000)">
                <rect id="Background" fill="#180624" x="0" y="0" width="1920" height="308"></rect>
                <g id="Social" transform="translate(333.000000, 112.000000)" fill="#FFFFFF">
                    <g id="soundcloud" transform="translate(108.000000, 0.000000)">
                        <path d="M0.367372553,15.9722773 C0.359399033,16.0260247 0.32100801,16.0644157 0.271099681,16.0644157 C0.221191352,16.0644157 0.18280033,16.0260247 0.175122125,15.971096 L0,14.6604855 L0.175122125,13.3280218 C0.182505014,13.2725024 0.220896037,13.2341114 0.271099681,13.2341114 C0.320712695,13.2341114 0.359103717,13.2725024 0.367372553,13.3280218 L0.575865336,14.6619621 L0.367372553,15.9722773 Z M1.25952085,16.768448 C1.25125201,16.8254439 1.20990784,16.8653115 1.15881825,16.8653115 C1.10920523,16.8653115 1.06579385,16.8254439 1.05900159,16.768448 L0.823339773,14.6601902 L1.05900159,12.504682 C1.06608916,12.4491627 1.10920523,12.4078185 1.15881825,12.4078185 C1.20990784,12.4078185 1.25125201,12.4482767 1.25952085,12.504682 L1.52766738,14.6601902 L1.25952085,16.768448 Z M2.22224957,17.1254845 C2.21545731,17.1939977 2.1640724,17.2427248 2.10235145,17.2427248 C2.03856329,17.2427248 1.98806433,17.1939977 1.9818627,17.1254845 L1.75830883,14.6619621 L1.9818627,12.1048247 C1.9874737,12.0354256 2.03856329,11.9858125 2.10235145,11.9858125 C2.1640724,11.9858125 2.21516199,12.0354256 2.22224957,12.1048247 L2.47592563,14.6619621 L2.22224957,17.1254845 Z M3.19442838,17.2037431 C3.18734081,17.2822971 3.12591517,17.3416555 3.05297223,17.3416555 C2.97825739,17.3416555 2.91712707,17.2822971 2.91092545,17.2037431 L2.69977482,14.6619621 L2.91092545,12.0345396 C2.91712707,11.955395 2.97825739,11.8960366 3.05297223,11.8960366 C3.12591517,11.8960366 3.18734081,11.955395 3.19442838,12.0345396 L3.4339293,14.6619621 L3.19442838,17.2037431 Z M4.17192287,17.2241199 C4.16690251,17.3153724 4.09573146,17.3829997 4.01156653,17.3829997 C3.92474375,17.3829997 3.85593523,17.3153724 3.85002892,17.2241199 L3.6503956,14.6616668 L3.85002892,12.2241322 C3.85623054,12.1334703 3.92474375,12.0658431 4.01156653,12.0658431 C4.09720804,12.0658431 4.16690251,12.1334703 4.17192287,12.2229509 L4.39813459,14.6616668 L4.17192287,17.2241199 Z M5.15886746,17.2255965 L5.15886746,17.2241199 C5.15296115,17.3251178 5.07293064,17.404853 4.97665777,17.404853 C4.88008958,17.404853 4.80005906,17.3248225 4.79444807,17.2255965 L4.60810395,14.6631434 L4.79444807,10.6973508 C4.80005906,10.5963529 4.88008958,10.5166177 4.97665777,10.5166177 C5.07322595,10.5166177 5.15325647,10.5966482 5.15886746,10.6958742 L5.37001809,14.6631434 L5.15886746,17.2255965 Z M6.13842917,17.2241199 L6.13842917,17.2226433 C6.13252286,17.3342726 6.0442235,17.4231626 5.93495675,17.4231626 C5.8277572,17.4231626 5.73916253,17.3342726 5.73384685,17.2226433 L5.55783878,14.6767279 L5.73384685,9.8037259 C5.73916253,9.69209662 5.8277572,9.60379727 5.93495675,9.60379727 C6.0442235,9.60379727 6.13252286,9.69209662 6.13842917,9.8037259 L6.33658591,14.6767279 L6.13842917,17.2241199 Z M7.15461,17.1848429 L7.15461,17.1833664 C7.15018027,17.3076942 7.05243082,17.4042624 6.93223738,17.4042624 C6.81204395,17.4042624 6.7142945,17.3076942 6.70986477,17.1848429 L6.54655527,14.6649153 C6.54655527,14.6649153 6.70986477,9.38585438 6.70986477,9.38437781 C6.71458982,9.26152654 6.81204395,9.16318645 6.93223738,9.16318645 C7.05243082,9.16318645 7.15047558,9.26152654 7.15461,9.38437781 L7.33918222,14.6649153 L7.15461,17.1848429 Z M8.16488452,17.1680099 C8.16015947,17.3032645 8.05414119,17.4092828 7.92213513,17.4092828 C7.78983376,17.4092828 7.68381548,17.3032645 7.67909043,17.1691912 L7.5267076,14.6643247 L7.67909043,9.20748379 C7.68381548,9.07163863 7.78983376,8.96591566 7.92213513,8.96591566 C8.05414119,8.96591566 8.16045479,9.07163863 8.16488452,9.20748379 L8.33410033,14.6643247 L8.16488452,17.1680099 Z M9.18165598,17.1458613 L9.18165598,17.1443847 C9.17693093,17.2905659 9.06264381,17.4066249 8.91764387,17.4066249 C8.77471114,17.4066249 8.6580615,17.2905659 8.65540366,17.1458613 L8.51542409,14.6649153 L8.65392708,9.34746336 C8.6580615,9.19921495 8.77441583,9.08463252 8.91764387,9.08463252 C9.06264381,9.08463252 9.17693093,9.19921495 9.18165598,9.34746336 L9.33876386,14.6649153 L9.18165598,17.1458613 Z M10.2066963,17.1310955 L10.2066963,17.1290283 C10.2043338,17.2882034 10.0785293,17.4107593 9.92319335,17.4107593 C9.7666761,17.4107593 9.64264357,17.2882034 9.63791852,17.1310955 L9.51152346,14.66462 L9.63821383,9.541781 C9.64293888,9.38290123 9.76697142,9.25857338 9.92348866,9.25857338 C10.0788246,9.25857338 10.2046291,9.38290123 10.2069916,9.541781 L10.3502196,14.6660965 L10.2066963,17.1310955 Z M11.2524087,16.8709225 L11.2397101,17.1124906 C11.2382335,17.1966556 11.2027957,17.272847 11.1487529,17.3277757 C11.0932336,17.3818184 11.0170422,17.4163703 10.936421,17.4163703 C10.8425107,17.4163703 10.7598223,17.3732543 10.7031217,17.3053317 C10.6611869,17.256014 10.6351992,17.1922258 10.632246,17.1251892 C10.6313601,17.122236 10.6313601,17.1183969 10.6313601,17.1142625 C10.6313601,17.1142625 10.5147104,14.6672778 10.5147104,14.6631434 L10.6298835,8.62600746 L10.6313601,8.56812561 C10.632246,8.46240264 10.688356,8.36819698 10.7722256,8.31415423 C10.8191807,8.28285078 10.8747001,8.26454121 10.9367163,8.26454121 C10.9975513,8.26454121 11.0551379,8.28344141 11.1032743,8.31681207 C11.1850767,8.37144545 11.2385288,8.46328858 11.2400054,8.56842092 L11.3681724,14.6660965 L11.2524087,16.8709225 Z M12.2685895,17.0808919 L12.2685895,17.0779387 C12.2665223,17.2563093 12.1203411,17.4016045 11.9437424,17.4016045 C11.7665531,17.4016045 11.6206672,17.2563093 11.6188953,17.0794153 L11.5518586,15.8892936 L11.4860033,14.6672778 L11.6188953,8.05043744 L11.6188953,8.01706678 C11.6191906,7.91665949 11.6664411,7.82688356 11.739384,7.76634387 C11.7951987,7.72056996 11.8669603,7.6928103 11.9437424,7.6928103 C12.0048727,7.6928103 12.0615733,7.70964328 12.110005,7.73799358 C12.2024388,7.79587543 12.2671129,7.89834992 12.2700661,8.0155902 L12.4138848,14.6669825 L12.2685895,17.0808919 Z M21.049207,17.4081015 C21.049207,17.4081015 12.8739864,17.4081015 12.8654222,17.4081015 C12.6888235,17.3900872 12.5491393,17.249517 12.5461861,17.0684886 L12.5461861,7.69989787 C12.5491393,7.52743358 12.6084977,7.4385436 12.830575,7.35319741 C13.4037825,7.13112011 14.0528861,7 14.7200039,7 C17.4413368,7 19.6712646,9.08758567 19.9078123,11.7469023 C20.2580566,11.6007211 20.64492,11.5174421 21.049207,11.5174421 C22.6787582,11.5174421 24,12.8392745 24,14.470007 C24,16.1004442 22.6787582,17.4081015 21.049207,17.4081015 L21.049207,17.4081015 Z" id="Shape"></path>
                    </g>
                </g>
            </g>
        </g>
    </g>
</svg>