<?xml version="1.0" encoding="UTF-8"?>
<svg width="32px" height="32px" viewBox="0 0 32 32" version="1.1" xmlns="http://www.w3.org/2000/svg" xmlns:xlink="http://www.w3.org/1999/xlink">
    <title>C97A54FD-CC77-487A-9C7F-485B10E8C462</title>
    <g id="ðŸžï¸-UI-(Web)" stroke="none" stroke-width="1" fill="none" fill-rule="evenodd">
        <g id="Article---Mobile" transform="translate(-62.000000, -744.000000)">
            <rect fill="#F8F8F8" x="0" y="0" width="375" height="8435"></rect>
            <g id="Article/Share-This" transform="translate(15.000000, 707.000000)" fill="#55ACEE" fill-rule="nonzero">
                <g id="twitter" transform="translate(47.000000, 37.000000)">
                    <path d="M15.8867257,-6.66663163e-08 C24.660722,-6.66663163e-08 31.7734514,7.11272932 31.7734514,15.8867257 C31.7734514,24.660722 24.660722,31.7734514 15.8867257,31.7734514 C7.11272932,31.7734514 -6.66663163e-08,24.660722 -6.66663163e-08,15.8867257 C-6.66663163e-08,7.11272932 7.11272932,-6.66663163e-08 15.8867257,-6.66663163e-08 Z M19.9362832,9.65663714 C17.840708,9.65663714 16.1415929,11.3557522 16.1415929,13.4513274 C16.1415929,13.7628318 16.1699115,14.0460177 16.2265487,14.3292035 C13.0831858,14.159292 10.279646,12.6584071 8.41061944,10.3646017 C8.07079643,10.9309734 7.90088492,11.5823009 7.90088492,12.2619469 C7.90088492,13.5929203 8.58053094,14.7539823 9.59999997,15.4336283 C8.97699112,15.4053097 8.38230085,15.2353982 7.87256634,14.9522124 L7.87256634,15.0088496 L7.87256634,15.0088496 C7.87256634,16.8495575 9.17522121,18.3787611 10.9309734,18.7185841 C10.619469,18.8035398 10.279646,18.860177 9.93982298,18.860177 C9.68495573,18.860177 9.45840705,18.8318584 9.23185838,18.8035398 C9.71327431,20.3044248 11.1292035,21.4088496 12.7716814,21.4371682 C11.4690265,22.4566372 9.82654865,23.0513275 8.04247784,23.0513275 C7.73097342,23.0513275 7.44778757,23.0230089 7.13628315,22.9946903 C8.80707962,24.0707965 10.8176991,24.6938053 12.9699115,24.6938053 C19.9646018,24.6938053 23.7876107,18.9168142 23.7876107,13.8761062 L23.7876107,13.3946903 L23.7876107,13.3946903 C24.4672567,12.8566372 25.1185841,12.1769911 25.6283186,11.4123894 C24.9486726,11.7238938 24.2123894,11.9221239 23.4477876,12.0070796 C24.240708,11.5256637 24.8353983,10.7893805 25.1185841,9.9115044 C24.3823009,10.3362832 23.561062,10.6761062 22.7115045,10.8460177 C22.0318584,10.1097345 21.040708,9.65663714 19.9362832,9.65663714 Z" id="Oval-2"></path>
                </g>
            </g>
        </g>
    </g>
</svg>