<?xml version="1.0" encoding="UTF-8"?>
<svg width="32px" height="32px" viewBox="0 0 32 32" version="1.1" xmlns="http://www.w3.org/2000/svg" xmlns:xlink="http://www.w3.org/1999/xlink">
    <title>196F2E92-60F7-4D0D-929B-071B53E86C0B</title>
    <g id="ðŸžï¸-UI-(Web)" stroke="none" stroke-width="1" fill="none" fill-rule="evenodd">
        <g id="Article---Mobile" transform="translate(-109.000000, -744.000000)">
            <rect fill="#F8F8F8" x="0" y="0" width="375" height="8435"></rect>
            <g id="Article/Share-This" transform="translate(15.000000, 707.000000)">
                <g id="whatsapp" transform="translate(94.000000, 37.000000)">
                    <circle id="Oval" fill="#25D366" fill-rule="nonzero" cx="16" cy="16" r="16"></circle>
                    <path d="M22.5369148,9.37926111 C20.8061638,7.63703073 18.4499751,6.66018354 15.9942018,6.66669905 C10.8955691,6.66669905 6.74605561,10.8158018 6.74428155,15.915765 C6.74210399,17.5388801 7.16800483,19.1338665 7.97902349,20.539838 L6.66666667,25.3333333 L11.5701533,24.0471438 C12.926221,24.7860561 14.4458945,25.1732175 15.9902102,25.1732249 L15.9942018,25.1732249 C21.0919474,25.1732249 25.2419044,21.0237114 25.2437262,15.9237482 C25.2515827,13.4683207 24.276923,11.1117617 22.5369148,9.37926111 Z M15.9942018,23.6089533 L15.9910972,23.6089533 C14.6142071,23.6096389 13.2624745,23.2399958 12.0775329,22.538754 L11.7967888,22.3724364 L8.8873394,23.1357233 L9.66437528,20.2972361 L9.48120415,20.0062911 C8.71224713,18.7808329 8.30542223,17.362942 8.30765785,15.9162085 C8.30765785,11.6784358 11.7564291,8.22878676 15.9973064,8.22878676 C18.036608,8.22996269 19.9919179,9.04120005 21.4330902,10.4840358 C22.8742624,11.9268715 23.6832436,13.883116 23.6820683,15.9224177 C23.6802929,20.1615209 20.231531,23.6089533 15.9942018,23.6089533 Z M20.2111293,17.8508149 C19.9800587,17.7350579 18.8437768,17.1762307 18.6317773,17.0968417 C18.4197778,17.0174528 18.2658786,16.9810847 18.1119793,17.2125988 C17.9580801,17.4441129 17.51501,17.9643544 17.3801819,18.1186971 C17.2453537,18.2730399 17.1105256,18.292111 16.879455,18.1763539 C16.6483844,18.0605969 15.903725,17.8166644 15.0206894,17.0294277 C14.3336868,16.4164918 13.8675539,15.6598576 13.7344998,15.4283435 C13.6014458,15.1968294 13.7203074,15.0735326 13.8360645,14.956445 C13.9398467,14.8531063 14.0671351,14.6867887 14.1824486,14.551517 C14.2977621,14.4162454 14.3367913,14.3204464 14.4135192,14.1661037 C14.4902471,14.011761 14.4521049,13.8769328 14.3944481,13.7611758 C14.3367913,13.6454187 13.8742066,12.5078062 13.6817217,12.0452215 C13.4941155,11.5946117 13.3038481,11.655373 13.1619237,11.6460593 C13.0288697,11.6394066 12.8727529,11.638076 12.7184101,11.638076 C12.4815786,11.6442663 12.2580962,11.749094 12.1019262,11.9272469 C11.8903702,12.158761 11.2934008,12.7175882 11.2934008,13.8552006 C11.2934008,14.9928131 12.1214408,16.0918399 12.2367543,16.2461826 C12.3520679,16.4005254 13.8666669,18.7347376 16.1840256,19.7361913 C16.6144013,19.9217862 17.0542343,20.0846325 17.5017046,20.2240563 C18.0552096,20.4014618 18.5590411,20.3752945 18.9573163,20.3158637 C19.40083,20.2493366 20.3246688,19.756593 20.5175973,19.2168369 C20.7105257,18.6770808 20.7100822,18.2140526 20.6506514,18.1178101 C20.5912205,18.0215677 20.4421999,17.968346 20.2111293,17.852589 L20.2111293,17.8508149 Z" id="Shape" fill="#FFFFFF"></path>
                </g>
            </g>
        </g>
    </g>
</svg>